# xmcd
#
# Track frame offsets: 
#        150
#        20697
#        38758
#        71451
#        93212
#        106105
#        122567
#        138575
#        155389
#        175409
#        213528
#        230895
#        244450
#        272653
#        290366
#        309217
#        333737
#
# Disc length: 4799 seconds
#
# Revision: 0
# Processed by: cddbd v1.5.2PL0 Copyright (c) Steve Scherf et al.
# Submitted via: ExactAudioCopy v1.3
#
DISCID=f712bd11
DTITLE=Various Artist - Akella Presents - vol. 145 - Rockin' Blues  C
DTITLE=D1
DYEAR=2018
DGENRE=Blues
TTITLE0=Webb Wilder - Human Cannonball
TTITLE1=Rockocola - 10 A.M. Blues
TTITLE2=Rob Blaine - Can't Help But Wonder
TTITLE3=The Hollerin Sluggers - Sleepin Blues
TTITLE4=Charlie Patton's War - Git Gone
TTITLE5=The Red Earth Blues Band - Black Dog Bark
TTITLE6=Slackjaw Blues Band - Love's No Good For You
TTITLE7=Coyote Kings - Am I Gettin' Wise
TTITLE8=Fred and The Healers - Too Tired
TTITLE9=Mojo Watson - Sweet Sixteen
TTITLE10=Frank Raven - My Luck Done Changed
TTITLE11=Lachy Doley - Stop Listening To The Blues
TTITLE12=Big Al Dorn - Shootin' Iron
TTITLE13=Studebaker John - Blue Feelin'
TTITLE14=Mike Goudreau - Big Black Dog
TTITLE15=Robben Ford - My Love Will Never Die
TTITLE16=Rocky Athas - No More Breath
EXTD=
EXTT0=
EXTT1=
EXTT2=
EXTT3=
EXTT4=
EXTT5=
EXTT6=
EXTT7=
EXTT8=
EXTT9=
EXTT10=
EXTT11=
EXTT12=
EXTT13=
EXTT14=
EXTT15=
EXTT16=
PLAYORDER=
